<?xml version="1.0" encoding="utf-8"?>
<!-- Generator: Adobe Illustrator 27.5.0, SVG Export Plug-In . SVG Version: 6.00 Build 0)  -->
<svg version="1.1" id="Layer_1" xmlns="http://www.w3.org/2000/svg" xmlns:xlink="http://www.w3.org/1999/xlink" x="0px" y="0px"
	 viewBox="0 0 100 24" enable-background="new 0 0 100 24" xml:space="preserve">
<path fill="#333" d="M23.3519421,0.5l-5.8522224,17.8633347l-2.4661112-8.292779h-3.961112l4.5552788,13.084445h4.2166653
	L27.8049965,0.5H23.3519421z M8.2677746,18.3633347l-2.7983332-8.292779H1.4572191l4.5552778,13.084445h4.6127777
	l1.8783331-5.5902786l-2.0316658-5.8202772L8.2677746,18.3633347z M56.4272194,15.9738884l6.4208336-5.9033327h-5.3474998
	l-4.1208344,3.871666V4.1672225H49.597496v18.9877777h3.7822227v-5.2325001l5.1111107,5.2325001h5.1175003L56.4272194,15.9738884z
	 M48.2749977,13.9741659c0,0-0.5111122-0.3513889-1.8144493-0.3513889c-0.9583321,0-1.7761078,0.5622225-2.0955544,0.9902782
	c-0.3194427,0.4216671-0.664444,1.2713881-0.664444,2.7344427v5.8138905h-3.9674988V10.0705557h3.9674988l-0.0255585,1.8591671
	h0.0511093c0.7411118-1.4311104,1.8336143-2.1147213,3.2391701-2.1147213c0.8752785,0,1.3097229,0.2619448,1.3097229,0.2619448
	v3.8972197H48.2749977z M31.2294407,23.5c-4.1591663,0-7.3088875-2.5874996-7.3088875-6.8297215
	s3.1497211-6.855278,7.3088875-6.855278s7.2833347,2.6130562,7.2833347,6.855278S35.388607,23.5,31.2294407,23.5z
	 M31.2294407,13.1755552c-1.8911114,0-2.9899979,1.4694443-2.9899979,3.4116659
	c0,1.9486122,1.0924988,3.4116669,2.9899979,3.4116669c1.8655567,0,2.9899998-1.4694443,2.9899998-3.4116669
	S33.0949974,13.1755552,31.2294407,13.1755552z M96.8816605,23.1613903h-4.0824966l-0.0830612-1.3416672
	C92.1538773,22.3819447,91.086937,23.5,88.9530411,23.5c-2.3191681,0-4.7724915-1.2522221-4.7724915-4.1847229
	s2.696106-3.9227772,5.1175003-4.0249996l3.3094406-0.1341667v-0.293889c0-1.3863888-0.9838867-2.1083336-2.696106-2.1083336
	c-1.6802826,0-3.3605499,0.7474995-4.0250015,1.1755552l-1.1180496-2.7727776
	c1.1180496-0.5622225,3.1752701-1.3352776,5.6286087-1.3352776c2.453331,0,3.8652725,0.5622225,4.9066696,1.5205564
	c1.015831,0.958333,1.5716629,2.2424994,1.5716629,4.4530554v7.3663902H96.8816605z M92.6458359,17.4177761l-2.1083374,0.1341686
	c-1.3097229,0.0511093-2.0827713,0.6133327-2.0827713,1.5972214c0,1.0158329,0.8241653,1.6291676,1.9997253,1.6291676
	c1.1436081,0,1.9230499-0.7475014,2.1849899-1.2011108v-2.1594467H92.6458359z M84.1869431,10.0705557l-5.3922272,13.0908346
	h-3.980278l-5.3602753-13.0908337h4.4338837l2.9708328,8.2800007l2.945282-8.2800007h4.382782V10.0705557z M68.3233261,23.1550007
	h-4.2486115v-13.084445h4.2486115V23.1550007z M64.0747147,8.9652777V4.1672225h5.2069473L64.0747147,8.9652777z
	 M97.6291656,10.0386114c-0.5111084,0-0.9136124-0.3961115-0.9136124-0.9136114s0.402504-0.9136114,0.9136124-0.9136114
	c0.5175018,0,0.9136124,0.3961115,0.9136124,0.9136114C98.5427704,9.6361113,98.140274,10.0386114,97.6291656,10.0386114z
	 M97.6291656,8.3455553c-0.4344482,0-0.7794418,0.3386116-0.7794418,0.7794447c0,0.4344444,0.3386154,0.7794447,0.7794418,0.7794447
	c0.440834,0,0.7794418-0.3386116,0.7794418-0.7794447C98.4022217,8.6841669,98.0699921,8.3455553,97.6291656,8.3455553z
	 M98.0827789,9.6552782h-0.2619476l-0.2236099-0.4216671h-0.1086044v0.4216671h-0.2172241V8.5819445h0.3769455
	c0.2363815,0,0.3833313,0.1213884,0.3833313,0.3194447c0,0.2044439-0.1341629,0.2811108-0.2172241,0.3002777L98.0827789,9.6552782z
	 M97.6163864,8.7672215h-0.1213913v0.29389h0.1213913c0.1022186,0,0.1916656-0.0255556,0.1916656-0.146945
	C97.8080521,8.792778,97.718605,8.7672215,97.6163864,8.7672215z"/>
</svg>
